<svg xmlns="http://www.w3.org/2000/svg" xmlns:xlink="http://www.w3.org/1999/xlink" width="192px" height="192px" viewBox="0 0 192 192" version="1.1">
<g id="surface1">
<path style=" stroke:none;fill-rule:nonzero;fill:rgb(30.980393%,27.450982%,89.803922%);fill-opacity:1;" d="M 121.125 192.375 C 80.761719 192.375 40.582031 192.375 0.390625 192.375 C 0.390625 128.402344 0.390625 64.425781 0.390625 0.414062 C 64.332031 0.414062 128.292969 0.414062 192.3125 0.414062 C 192.3125 64.375 192.3125 128.375 192.3125 192.375 C 168.675781 192.375 144.996094 192.375 121.125 192.375 M 87.675781 151.761719 C 89.066406 153.703125 90.917969 155.089844 93.203125 155.6875 C 100.054688 157.472656 105.769531 153.84375 107.183594 146.722656 C 109.054688 137.296875 110.765625 127.84375 112.566406 118.40625 C 113.3125 114.5 114.53125 113.308594 118.359375 112.578125 C 123.570312 111.582031 128.789062 110.636719 133.984375 109.582031 C 139.226562 108.515625 144.492188 107.519531 149.65625 106.152344 C 153.382812 105.171875 156.328125 100.429688 156.257812 96.382812 C 156.179688 92.039062 153.417969 87.6875 149.6875 86.570312 C 146.359375 85.570312 142.945312 84.816406 139.53125 84.144531 C 132.246094 82.71875 124.929688 81.441406 117.640625 80.046875 C 115.09375 79.558594 113.285156 78.085938 112.777344 75.453125 C 111.503906 68.839844 110.367188 62.199219 109.066406 55.589844 C 108.261719 51.5 107.488281 47.378906 106.289062 43.398438 C 104.871094 38.691406 99.535156 35.886719 94.679688 36.707031 C 89.828125 37.527344 86.46875 41.058594 85.464844 46.261719 C 83.6875 55.511719 82.023438 64.785156 80.25 74.039062 C 79.402344 78.46875 78.183594 79.519531 73.785156 80.328125 C 64.457031 82.042969 55.128906 83.730469 45.832031 85.59375 C 41.449219 86.46875 38.148438 88.945312 37 93.46875 C 35.292969 100.171875 39.113281 105.894531 46.09375 107.234375 C 55.652344 109.070312 65.226562 110.820312 74.789062 112.640625 C 78.050781 113.261719 79.507812 114.796875 80.125 118.0625 C 81.636719 126.089844 83.132812 134.121094 84.679688 142.144531 C 85.300781 145.371094 85.503906 148.734375 87.675781 151.761719 M 40.257812 150.429688 C 42.613281 153.15625 45.503906 154.976562 49.035156 155.835938 C 56.121094 157.566406 63.503906 154.300781 67.171875 147.738281 C 70.671875 141.484375 69.519531 133.535156 64.367188 128.382812 C 59.167969 123.183594 51.136719 122.078125 44.847656 125.664062 C 35.84375 130.796875 33.824219 142.390625 40.257812 150.429688 M 126.417969 48.179688 C 124.089844 49.691406 123.230469 51.730469 123.859375 54.226562 C 124.417969 56.429688 126.433594 58.019531 128.96875 58.175781 C 130.273438 58.253906 131.589844 58.265625 132.898438 58.214844 C 134.121094 58.167969 134.558594 58.695312 134.539062 59.882812 C 134.507812 61.441406 134.519531 63.011719 134.664062 64.558594 C 134.847656 66.582031 136.707031 68.519531 138.691406 68.945312 C 142.277344 69.710938 145.273438 67.25 145.421875 63.363281 C 145.484375 61.703125 145.433594 60.039062 145.433594 58.148438 C 147.589844 58.148438 149.515625 58.4375 151.304688 58.058594 C 152.699219 57.761719 154.339844 56.949219 155.148438 55.835938 C 157.804688 52.1875 155.257812 47.570312 150.605469 47.335938 C 148.945312 47.253906 147.273438 47.324219 145.425781 47.324219 C 145.425781 45.421875 145.472656 43.75 145.414062 42.078125 C 145.304688 38.902344 143.007812 36.632812 139.972656 36.558594 C 137.363281 36.492188 134.496094 38.753906 134.5625 41.839844 C 134.601562 43.578125 134.570312 45.320312 134.570312 46.933594 C 131.773438 47.316406 129.214844 47.667969 126.417969 48.179688 Z M 126.417969 48.179688 "/>
<path style=" stroke:none;fill-rule:nonzero;fill:rgb(98.823529%,98.431373%,99.607843%);fill-opacity:1;" d="M 87.585938 151.65625 C 85.503906 148.734375 85.300781 145.371094 84.679688 142.144531 C 83.132812 134.121094 81.636719 126.089844 80.125 118.0625 C 79.507812 114.796875 78.050781 113.261719 74.789062 112.640625 C 65.226562 110.820312 55.652344 109.070312 46.09375 107.234375 C 39.113281 105.894531 35.292969 100.171875 37 93.46875 C 38.148438 88.945312 41.449219 86.46875 45.832031 85.59375 C 55.128906 83.730469 64.457031 82.042969 73.785156 80.328125 C 78.183594 79.519531 79.402344 78.46875 80.25 74.039062 C 82.023438 64.785156 83.6875 55.511719 85.464844 46.261719 C 86.46875 41.058594 89.828125 37.527344 94.679688 36.707031 C 99.535156 35.886719 104.871094 38.691406 106.289062 43.398438 C 107.488281 47.378906 108.261719 51.5 109.066406 55.589844 C 110.367188 62.199219 111.503906 68.839844 112.777344 75.453125 C 113.285156 78.085938 115.09375 79.558594 117.640625 80.046875 C 124.929688 81.441406 132.246094 82.71875 139.53125 84.144531 C 142.945312 84.816406 146.359375 85.570312 149.6875 86.570312 C 153.417969 87.6875 156.179688 92.039062 156.257812 96.382812 C 156.328125 100.429688 153.382812 105.171875 149.65625 106.152344 C 144.492188 107.519531 139.226562 108.515625 133.984375 109.582031 C 128.789062 110.636719 123.570312 111.582031 118.359375 112.578125 C 114.53125 113.308594 113.3125 114.5 112.566406 118.40625 C 110.765625 127.84375 109.054688 137.296875 107.183594 146.722656 C 105.769531 153.84375 100.054688 157.472656 93.203125 155.6875 C 90.917969 155.089844 89.066406 153.703125 87.585938 151.65625 M 89.046875 110.691406 C 89.359375 111.4375 89.804688 112.15625 89.964844 112.933594 C 91.46875 120.203125 92.933594 127.484375 94.386719 134.761719 C 94.988281 137.769531 95.53125 140.789062 96.101562 143.800781 C 96.273438 143.800781 96.445312 143.800781 96.613281 143.796875 C 97.042969 141.636719 97.46875 139.476562 97.90625 137.316406 C 99.566406 129.125 100.996094 120.871094 102.988281 112.757812 C 104.203125 107.8125 107.730469 104.21875 112.683594 102.960938 C 119.988281 101.105469 127.445312 99.832031 134.84375 98.339844 C 137.792969 97.746094 140.761719 97.226562 143.71875 96.671875 C 143.328125 96.121094 142.953125 95.96875 142.566406 95.894531 C 133.742188 94.203125 124.910156 92.535156 116.089844 90.828125 C 109.183594 89.488281 104.230469 85.699219 102.53125 78.738281 C 100.84375 71.839844 99.695312 64.804688 98.328125 57.828125 C 97.75 54.871094 97.222656 51.90625 96.667969 48.941406 C 96.101562 49.425781 95.925781 49.914062 95.828125 50.421875 C 94.164062 59.125 92.527344 67.835938 90.851562 76.539062 C 89.433594 83.921875 85.265625 88.84375 77.816406 90.550781 C 73.074219 91.636719 68.257812 92.417969 63.476562 93.332031 C 58.730469 94.238281 53.988281 95.140625 49.242188 96.042969 C 49.742188 96.632812 50.28125 96.871094 50.84375 96.980469 C 58.933594 98.53125 67.011719 100.167969 75.125 101.574219 C 81.035156 102.597656 85.910156 105.003906 89.046875 110.691406 Z M 89.046875 110.691406 "/>
<path style=" stroke:none;fill-rule:nonzero;fill:rgb(98.431373%,98.431373%,99.607843%);fill-opacity:1;" d="M 40.167969 150.332031 C 33.824219 142.390625 35.84375 130.796875 44.847656 125.664062 C 51.136719 122.078125 59.167969 123.183594 64.367188 128.382812 C 69.519531 133.535156 70.671875 141.484375 67.171875 147.738281 C 63.503906 154.300781 56.121094 157.566406 49.035156 155.835938 C 45.503906 154.976562 42.613281 153.15625 40.167969 150.332031 M 47.605469 138.261719 C 47.511719 138.75 47.355469 139.234375 47.335938 139.722656 C 47.226562 142.222656 48.984375 144.550781 51.480469 145.265625 C 53.722656 145.910156 56.421875 144.691406 57.652344 142.480469 C 58.761719 140.492188 58.195312 137.679688 56.519531 135.957031 C 54.375 133.757812 49.273438 133.878906 47.605469 138.261719 Z M 47.605469 138.261719 "/>
<path style=" stroke:none;fill-rule:nonzero;fill:rgb(98.823529%,98.431373%,99.607843%);fill-opacity:1;" d="M 126.535156 48.097656 C 129.214844 47.667969 131.773438 47.316406 134.570312 46.933594 C 134.570312 45.320312 134.601562 43.578125 134.5625 41.839844 C 134.496094 38.753906 137.363281 36.492188 139.972656 36.558594 C 143.007812 36.632812 145.304688 38.902344 145.414062 42.078125 C 145.472656 43.75 145.425781 45.421875 145.425781 47.324219 C 147.273438 47.324219 148.945312 47.253906 150.605469 47.335938 C 155.257812 47.570312 157.804688 52.1875 155.148438 55.835938 C 154.339844 56.949219 152.699219 57.761719 151.304688 58.058594 C 149.515625 58.4375 147.589844 58.148438 145.433594 58.148438 C 145.433594 60.039062 145.484375 61.703125 145.421875 63.363281 C 145.273438 67.25 142.277344 69.710938 138.691406 68.945312 C 136.707031 68.519531 134.847656 66.582031 134.664062 64.558594 C 134.519531 63.011719 134.507812 61.441406 134.539062 59.882812 C 134.558594 58.695312 134.121094 58.167969 132.898438 58.214844 C 131.589844 58.265625 130.273438 58.253906 128.96875 58.175781 C 126.433594 58.019531 124.417969 56.429688 123.859375 54.226562 C 123.230469 51.730469 124.089844 49.691406 126.535156 48.097656 Z M 126.535156 48.097656 "/>
<path style=" stroke:none;fill-rule:nonzero;fill:rgb(32.549021%,29.019609%,90.196079%);fill-opacity:1;" d="M 88.972656 110.574219 C 85.910156 105.003906 81.035156 102.597656 75.125 101.574219 C 67.011719 100.167969 58.933594 98.53125 50.84375 96.980469 C 50.28125 96.871094 49.742188 96.632812 49.242188 96.042969 C 53.988281 95.140625 58.730469 94.238281 63.476562 93.332031 C 68.257812 92.417969 73.074219 91.636719 77.816406 90.550781 C 85.265625 88.84375 89.433594 83.921875 90.851562 76.539062 C 92.527344 67.835938 94.164062 59.125 95.828125 50.421875 C 95.925781 49.914062 96.101562 49.425781 96.667969 48.941406 C 97.222656 51.90625 97.75 54.871094 98.328125 57.828125 C 99.695312 64.804688 100.84375 71.839844 102.53125 78.738281 C 104.230469 85.699219 109.183594 89.488281 116.089844 90.828125 C 124.910156 92.535156 133.742188 94.203125 142.566406 95.894531 C 142.953125 95.96875 143.328125 96.121094 143.71875 96.671875 C 140.761719 97.226562 137.792969 97.746094 134.84375 98.339844 C 127.445312 99.832031 119.988281 101.105469 112.683594 102.960938 C 107.730469 104.21875 104.203125 107.8125 102.988281 112.757812 C 100.996094 120.871094 99.566406 129.125 97.90625 137.316406 C 97.46875 139.476562 97.042969 141.636719 96.613281 143.796875 C 96.445312 143.800781 96.273438 143.800781 96.101562 143.800781 C 95.53125 140.789062 94.988281 137.769531 94.386719 134.761719 C 92.933594 127.484375 91.46875 120.203125 89.964844 112.933594 C 89.804688 112.15625 89.359375 111.4375 88.972656 110.574219 Z M 88.972656 110.574219 "/>
<path style=" stroke:none;fill-rule:nonzero;fill:rgb(33.725491%,30.19608%,90.196079%);fill-opacity:1;" d="M 47.664062 138.128906 C 49.273438 133.878906 54.375 133.757812 56.519531 135.957031 C 58.195312 137.679688 58.761719 140.492188 57.652344 142.480469 C 56.421875 144.691406 53.722656 145.910156 51.480469 145.265625 C 48.984375 144.550781 47.226562 142.222656 47.335938 139.722656 C 47.355469 139.234375 47.511719 138.75 47.664062 138.128906 Z M 47.664062 138.128906 "/>
</g>
</svg>
